<svg xmlns="http://www.w3.org/2000/svg" width="34.529" height="35.718" viewBox="544 17 34.529 35.718"><path d="m578.002 49.531-8.51-8.838a14.37 14.37 0 0 0 3.388-9.273c0-7.951-6.477-14.42-14.442-14.42C550.478 17 544 23.469 544 31.42a14.446 14.446 0 0 0 14.438 14.422 14.28 14.28 0 0 0 8.274-2.611l8.577 8.909c.36.373.84.578 1.359.578a1.871 1.871 0 0 0 1.303-.526 1.866 1.866 0 0 0 .537-.962 1.883 1.883 0 0 0-.486-1.699Zm-8.89-18.111a10.68 10.68 0 0 0-10.674-10.657 10.678 10.678 0 0 0-10.67 10.657 10.678 10.678 0 0 0 10.67 10.66 10.68 10.68 0 0 0 10.675-10.66Z" fill="rgba(34, 37, 44, 1)" fill-rule="evenodd" data-name="Forme 9"/></svg>